<mxfile host="app.diagrams.net" agent="Mozilla/5.0 (Windows NT 10.0; Win64; x64) AppleWebKit/537.36 (KHTML, like Gecko) Chrome/131.0.0.0 Safari/537.36 Edg/131.0.0.0" version="24.8.6">
  <diagram name="第 1 页" id="8HyxAwnPCLoS_49KYOfU">
    <mxGraphModel dx="1507" dy="1065" grid="0" gridSize="10" guides="1" tooltips="1" connect="1" arrows="1" fold="1" page="0" pageScale="1" pageWidth="827" pageHeight="1169" math="0" shadow="0">
      <root>
        <mxCell id="0" />
        <mxCell id="1" parent="0" />
        <mxCell id="QlUKUto3WHlcuCq8jtGr-1" value="SCREEN" style="rounded=0;whiteSpace=wrap;html=1;" vertex="1" parent="1">
          <mxGeometry x="-67" y="-52" width="120" height="60" as="geometry" />
        </mxCell>
        <mxCell id="QlUKUto3WHlcuCq8jtGr-2" value="KVM" style="rounded=0;whiteSpace=wrap;html=1;" vertex="1" parent="1">
          <mxGeometry x="-54.25" y="78" width="94.5" height="42" as="geometry" />
        </mxCell>
        <mxCell id="QlUKUto3WHlcuCq8jtGr-3" value="" style="endArrow=none;html=1;rounded=0;fontSize=12;startSize=8;endSize=8;curved=1;" edge="1" parent="1">
          <mxGeometry width="50" height="50" relative="1" as="geometry">
            <mxPoint x="-7" y="78" as="sourcePoint" />
            <mxPoint x="-7" y="8" as="targetPoint" />
          </mxGeometry>
        </mxCell>
        <mxCell id="QlUKUto3WHlcuCq8jtGr-8" value="HDMI &amp;amp; USB" style="edgeLabel;html=1;align=center;verticalAlign=middle;resizable=0;points=[];fontSize=12;" vertex="1" connectable="0" parent="QlUKUto3WHlcuCq8jtGr-3">
          <mxGeometry x="0.419" y="-2" relative="1" as="geometry">
            <mxPoint as="offset" />
          </mxGeometry>
        </mxCell>
        <mxCell id="QlUKUto3WHlcuCq8jtGr-4" value="KVM" style="rounded=0;whiteSpace=wrap;html=1;" vertex="1" parent="1">
          <mxGeometry x="14" y="184" width="94.5" height="42" as="geometry" />
        </mxCell>
        <mxCell id="QlUKUto3WHlcuCq8jtGr-5" value="KVM" style="rounded=0;whiteSpace=wrap;html=1;" vertex="1" parent="1">
          <mxGeometry x="-125" y="184" width="94.5" height="42" as="geometry" />
        </mxCell>
        <mxCell id="QlUKUto3WHlcuCq8jtGr-6" value="" style="endArrow=none;html=1;rounded=0;fontSize=12;startSize=8;endSize=8;curved=1;" edge="1" parent="1" source="QlUKUto3WHlcuCq8jtGr-5" target="QlUKUto3WHlcuCq8jtGr-2">
          <mxGeometry width="50" height="50" relative="1" as="geometry">
            <mxPoint x="175" y="225" as="sourcePoint" />
            <mxPoint x="225" y="175" as="targetPoint" />
          </mxGeometry>
        </mxCell>
        <mxCell id="QlUKUto3WHlcuCq8jtGr-9" value="HDMI 1 &amp;amp; USB" style="edgeLabel;html=1;align=center;verticalAlign=middle;resizable=0;points=[];fontSize=12;" vertex="1" connectable="0" parent="QlUKUto3WHlcuCq8jtGr-6">
          <mxGeometry x="0.2722" y="-2" relative="1" as="geometry">
            <mxPoint as="offset" />
          </mxGeometry>
        </mxCell>
        <mxCell id="QlUKUto3WHlcuCq8jtGr-7" value="" style="endArrow=none;html=1;rounded=0;fontSize=12;startSize=8;endSize=8;curved=1;" edge="1" parent="1" source="QlUKUto3WHlcuCq8jtGr-4" target="QlUKUto3WHlcuCq8jtGr-2">
          <mxGeometry width="50" height="50" relative="1" as="geometry">
            <mxPoint x="175" y="225" as="sourcePoint" />
            <mxPoint x="225" y="175" as="targetPoint" />
          </mxGeometry>
        </mxCell>
        <mxCell id="QlUKUto3WHlcuCq8jtGr-10" value="HDMI 2 &amp;amp;USB" style="edgeLabel;html=1;align=center;verticalAlign=middle;resizable=0;points=[];fontSize=12;" vertex="1" connectable="0" parent="QlUKUto3WHlcuCq8jtGr-7">
          <mxGeometry x="-0.4066" y="1" relative="1" as="geometry">
            <mxPoint x="1" as="offset" />
          </mxGeometry>
        </mxCell>
        <mxCell id="QlUKUto3WHlcuCq8jtGr-11" value="AGX　&lt;span style=&quot;background-color: initial;&quot;&gt;ＯＲＩＮ&lt;/span&gt;" style="shape=hexagon;perimeter=hexagonPerimeter2;whiteSpace=wrap;html=1;fixedSize=1;" vertex="1" parent="1">
          <mxGeometry x="-196" y="319" width="105" height="49" as="geometry" />
        </mxCell>
        <mxCell id="QlUKUto3WHlcuCq8jtGr-12" value="ORIN NX 1" style="shape=hexagon;perimeter=hexagonPerimeter2;whiteSpace=wrap;html=1;fixedSize=1;" vertex="1" parent="1">
          <mxGeometry x="-83" y="364" width="105" height="49" as="geometry" />
        </mxCell>
        <mxCell id="QlUKUto3WHlcuCq8jtGr-13" value="ORIN NX 2" style="shape=hexagon;perimeter=hexagonPerimeter2;whiteSpace=wrap;html=1;fixedSize=1;" vertex="1" parent="1">
          <mxGeometry x="113" y="375" width="105" height="49" as="geometry" />
        </mxCell>
        <mxCell id="QlUKUto3WHlcuCq8jtGr-14" value="TX2 NX 1" style="shape=hexagon;perimeter=hexagonPerimeter2;whiteSpace=wrap;html=1;fixedSize=1;" vertex="1" parent="1">
          <mxGeometry x="177" y="274" width="105" height="49" as="geometry" />
        </mxCell>
        <mxCell id="QlUKUto3WHlcuCq8jtGr-15" value="TX2 NX 2" style="shape=hexagon;perimeter=hexagonPerimeter2;whiteSpace=wrap;html=1;fixedSize=1;" vertex="1" parent="1">
          <mxGeometry x="321" y="342" width="105" height="49" as="geometry" />
        </mxCell>
        <mxCell id="QlUKUto3WHlcuCq8jtGr-19" value="" style="endArrow=none;html=1;rounded=0;fontSize=12;startSize=8;endSize=8;curved=1;" edge="1" parent="1" source="QlUKUto3WHlcuCq8jtGr-11" target="QlUKUto3WHlcuCq8jtGr-5">
          <mxGeometry width="50" height="50" relative="1" as="geometry">
            <mxPoint x="175" y="225" as="sourcePoint" />
            <mxPoint x="225" y="175" as="targetPoint" />
          </mxGeometry>
        </mxCell>
        <mxCell id="QlUKUto3WHlcuCq8jtGr-20" value="HDMI1-1 &amp;amp; USB" style="edgeLabel;html=1;align=center;verticalAlign=middle;resizable=0;points=[];fontSize=12;" vertex="1" connectable="0" parent="QlUKUto3WHlcuCq8jtGr-19">
          <mxGeometry x="-0.0264" y="-4" relative="1" as="geometry">
            <mxPoint as="offset" />
          </mxGeometry>
        </mxCell>
        <mxCell id="QlUKUto3WHlcuCq8jtGr-21" value="" style="endArrow=none;html=1;rounded=0;fontSize=12;startSize=8;endSize=8;curved=1;" edge="1" parent="1" source="QlUKUto3WHlcuCq8jtGr-12" target="QlUKUto3WHlcuCq8jtGr-5">
          <mxGeometry width="50" height="50" relative="1" as="geometry">
            <mxPoint x="175" y="225" as="sourcePoint" />
            <mxPoint x="225" y="175" as="targetPoint" />
          </mxGeometry>
        </mxCell>
        <mxCell id="QlUKUto3WHlcuCq8jtGr-22" value="HDMI1-2 &amp;amp; USB" style="edgeLabel;html=1;align=center;verticalAlign=middle;resizable=0;points=[];fontSize=12;" vertex="1" connectable="0" parent="QlUKUto3WHlcuCq8jtGr-21">
          <mxGeometry x="-0.0131" y="2" relative="1" as="geometry">
            <mxPoint as="offset" />
          </mxGeometry>
        </mxCell>
        <mxCell id="QlUKUto3WHlcuCq8jtGr-23" value="" style="endArrow=none;html=1;rounded=0;fontSize=12;startSize=8;endSize=8;curved=1;" edge="1" parent="1" source="QlUKUto3WHlcuCq8jtGr-13" target="QlUKUto3WHlcuCq8jtGr-5">
          <mxGeometry width="50" height="50" relative="1" as="geometry">
            <mxPoint x="175" y="225" as="sourcePoint" />
            <mxPoint x="225" y="175" as="targetPoint" />
          </mxGeometry>
        </mxCell>
        <mxCell id="QlUKUto3WHlcuCq8jtGr-24" value="HDMI1-3 &amp;amp; USB" style="edgeLabel;html=1;align=center;verticalAlign=middle;resizable=0;points=[];fontSize=12;" vertex="1" connectable="0" parent="QlUKUto3WHlcuCq8jtGr-23">
          <mxGeometry x="-0.085" y="-1" relative="1" as="geometry">
            <mxPoint as="offset" />
          </mxGeometry>
        </mxCell>
        <mxCell id="QlUKUto3WHlcuCq8jtGr-25" value="" style="endArrow=none;html=1;rounded=0;fontSize=12;startSize=8;endSize=8;curved=1;" edge="1" parent="1" target="QlUKUto3WHlcuCq8jtGr-5">
          <mxGeometry width="50" height="50" relative="1" as="geometry">
            <mxPoint x="111" y="276" as="sourcePoint" />
            <mxPoint x="225" y="175" as="targetPoint" />
          </mxGeometry>
        </mxCell>
        <mxCell id="QlUKUto3WHlcuCq8jtGr-26" value="HDMI1-4 &amp;amp; USB" style="edgeLabel;html=1;align=center;verticalAlign=middle;resizable=0;points=[];fontSize=12;" vertex="1" connectable="0" parent="QlUKUto3WHlcuCq8jtGr-25">
          <mxGeometry x="-0.0711" y="6" relative="1" as="geometry">
            <mxPoint as="offset" />
          </mxGeometry>
        </mxCell>
      </root>
    </mxGraphModel>
  </diagram>
</mxfile>
